<svg width="66" height="53" viewBox="0 0 66 53" fill="none" xmlns="http://www.w3.org/2000/svg">
<path d="M12.7058 33.6238C12.7058 33.6238 15.3775 35.4284 15.729 38.1939C15.7994 38.7798 16.315 39.2251 16.9009 39.2251C16.9477 39.2251 16.9946 39.2251 17.0415 39.2251C17.6743 39.1313 18.143 38.5454 18.0492 37.9126C17.6743 34.9128 15.4712 32.8504 14.4869 32.0536C13.8776 24.179 8.13569 21.5072 4.99523 20.0776C4.36245 19.7964 3.77654 19.5152 3.51874 19.3042C2.9094 18.8589 3.09689 18.109 3.35469 17.6168C9.89341 18.2027 12.4714 16.6559 13.4323 15.6482C14.0182 15.0388 14.3229 14.3357 14.3229 13.6092C17.3461 14.3826 19.8304 14.1248 21.7756 12.8593C23.1818 11.9218 24.9395 9.97659 25.4785 5.96899C26.041 5.82837 27.0019 5.66431 27.7987 5.54713C28.4315 5.45339 28.8768 4.86748 28.8065 4.2347C28.7362 3.60192 28.1268 3.1332 27.4941 3.22694C23.838 3.74254 23.5333 4.11752 23.3224 4.77374C23.299 4.84404 23.2521 5.17215 23.2287 5.24246C22.924 8.00794 22.01 9.90628 20.4866 10.8906C19.0101 11.8749 16.9009 11.9452 14.276 11.1484C13.8307 11.0078 13.1511 10.9844 12.612 11.4531C12.073 11.8984 11.8621 12.6483 12.0027 13.6092C12.0027 13.6561 11.9792 13.7967 11.7683 14.0076C10.8543 14.9451 8.04195 15.7654 2.86253 15.2029C2.44067 15.156 2.04226 15.3435 1.78446 15.6716C1.66728 15.8357 0.565771 17.4059 0.82357 19.0699C0.964188 19.9136 1.40948 20.6635 2.15944 21.1791C2.62816 21.5072 3.23751 21.8119 4.03434 22.1635C6.96388 23.5228 11.8855 25.7961 12.1902 32.6863C12.1902 33.0613 12.4011 33.4129 12.7058 33.6004V33.6238Z" fill="black"/>
<path d="M47.4858 41.5216C46.8999 41.2404 46.1968 41.4747 45.9156 42.0372C44.814 44.2636 42.4939 45.2714 40.8533 45.7167C40.3143 45.8104 39.7752 45.787 39.3534 45.6464C33.8224 43.959 30.2601 44.123 28.4321 46.1151C27.2134 47.451 27.1665 49.2087 27.3774 50.5211C19.1044 49.5837 13.6907 45.6933 11.9329 44.2168C13.8781 40.3029 14.2063 37.0687 14.2063 36.9281C14.2531 36.2953 13.7844 35.7094 13.1516 35.6625C12.4954 35.5922 11.9329 36.0844 11.8861 36.7172C11.8861 36.7406 11.558 40.1154 9.44869 43.9121C9.19089 44.3808 9.28464 44.9433 9.65962 45.3183C9.94085 45.5995 16.7608 52.2085 28.8774 52.9819C28.9008 52.9819 28.9242 52.9819 28.9477 52.9819C29.3227 52.9819 29.6742 52.7944 29.8851 52.4898C30.1195 52.1617 30.1664 51.7398 30.0257 51.3648C30.0257 51.3648 29.0883 48.8571 30.1898 47.6619C30.8226 46.9588 32.7912 46.0682 38.6503 47.8494C39.6815 48.2009 40.7127 48.0838 41.3689 47.99C44.5328 47.1463 46.8296 45.4355 48.0248 43.0684C48.306 42.4825 48.0717 41.7794 47.5092 41.4982L47.4858 41.5216Z" fill="black"/>
<path d="M65.9533 19.2573C65.672 15.2497 63.9846 11.1014 61.1254 7.3985L60.5161 6.60167L59.4614 5.66422C55.6647 2.38314 50.5556 0.437927 45.4934 0.437927C40.4312 0.437927 34.9002 2.80499 31.1035 6.62511L30.4239 7.30476L30.9629 8.10159C30.9629 8.10159 30.9863 8.14847 31.0098 8.1719C31.3144 8.61719 31.6425 9.03904 32.0175 9.43746C33.0956 10.6327 34.3612 11.5702 35.6502 12.4373C35.1111 14.8512 34.783 17.0074 34.6893 18.9995C34.6893 19.0932 34.6658 19.187 34.6658 19.2807H27.9865C28.1505 17.2652 28.7364 15.2262 29.7442 13.1873C30.0254 12.6014 29.7911 11.8983 29.2052 11.617C28.6193 11.3358 27.9162 11.5702 27.6349 12.1561C26.4631 14.5231 25.8069 16.9136 25.6429 19.2807H25.5725V21.6243H25.6194C25.8772 26.4522 27.7521 30.8582 30.9629 34.1393H30.9863C30.9863 34.1393 31.0332 34.2096 31.0566 34.2331C34.5955 38.4516 40.103 41.0764 45.4465 41.0764C51.2822 41.0764 56.8834 38.5219 60.4692 34.2565C60.4692 34.2565 60.5161 34.2096 60.5395 34.1627L61.2191 33.3425L60.4692 32.5925C60.1176 32.241 59.7427 31.9129 59.3208 31.5613H59.2974C58.2662 30.6942 57.0709 29.8739 55.8757 29.0536L55.9225 28.9365L55.8288 28.8896C56.2506 26.6866 56.2975 24.1554 56.321 21.6243H63.6096C63.4456 23.4758 62.9534 24.9757 62.4144 26.5694C62.2035 27.1787 62.555 27.8349 63.1644 28.0459C63.7737 28.2568 64.4533 27.9053 64.6408 27.2959C65.2033 25.5851 65.7658 23.8273 65.9298 21.6243H66.0001V19.2807H65.9298L65.9533 19.2573ZM48.587 26.6163C48.3526 26.5928 48.1417 26.5459 47.9073 26.5225C47.1339 26.4522 46.3137 26.4053 45.4934 26.4053C42.7045 26.4053 40.314 26.8506 37.9235 27.8584C37.9 27.7412 37.8766 27.624 37.8532 27.5068C37.6422 26.5694 37.4782 25.6554 37.3376 24.7882C37.3376 24.7179 37.3141 24.6242 37.2907 24.5539C37.1501 23.6399 37.0798 22.7727 37.0329 21.9524C37.0329 21.8353 37.0329 21.7415 37.0329 21.6243H53.9773C53.8836 23.4289 53.6023 25.4444 53.1102 27.6709C52.1493 27.3193 51.1181 27.0616 50.04 26.8506C49.5713 26.7569 49.0791 26.6866 48.587 26.6163ZM33.6581 7.75005C33.6581 7.75005 33.5643 7.63287 33.5174 7.56256C35.2986 5.99233 37.4313 4.72677 39.6812 3.88306C38.4625 5.40642 37.361 7.3985 36.447 9.78901C35.6033 9.39059 34.8299 8.85155 34.1737 8.21877C34.0096 8.05472 33.8456 7.9141 33.6815 7.75005H33.6581ZM58.0318 7.63287C58.0318 7.63287 57.8912 7.82036 57.7974 7.9141L57.7037 8.00785C56.86 8.85155 55.7819 9.4609 54.5164 9.88275C53.8133 7.44538 52.7821 5.47673 51.5634 3.97681C53.7664 4.79708 55.946 6.0392 58.0084 7.60943L58.0318 7.63287ZM53.2274 13.7966C53.6492 15.7887 53.8836 17.5933 53.9539 19.2573H37.0329C37.0329 19.2573 37.0329 19.0463 37.0329 18.9292C37.0798 18.1558 37.1735 17.3355 37.2907 16.5152C37.4313 15.5778 37.6188 14.6169 37.8297 13.6326V13.5622C40.1968 14.5231 42.9623 15.0856 45.4934 15.0856C48.2354 15.0856 50.8837 14.6169 53.2274 13.7732V13.7966ZM36.4939 31.3504C37.2673 33.4597 38.2516 35.733 39.564 37.5376C37.3376 36.6236 35.2517 35.2642 33.5878 33.5065C34.4315 32.8034 35.4392 32.0769 36.4939 31.3504ZM52.5712 11.5702C50.4853 12.3436 48.0479 12.7888 45.4934 12.7888C43.2201 12.7888 40.6421 12.2498 38.5563 11.3827C38.6266 11.1717 38.6969 10.9374 38.7672 10.7499C38.8609 10.4921 38.9547 10.2109 39.0718 9.95306C39.2125 9.57808 39.3765 9.22653 39.5171 8.87499C39.6343 8.64063 39.7281 8.38283 39.8452 8.14847C40.0093 7.82036 40.1734 7.51569 40.3374 7.21101C40.4546 7.00009 40.5718 6.76572 40.689 6.57823C40.853 6.297 41.0405 6.0392 41.2046 5.80484C41.3217 5.61735 41.4623 5.42986 41.5795 5.2658C41.767 5.03144 41.9545 4.84395 42.1186 4.63302C42.2592 4.4924 42.3764 4.32835 42.517 4.21117C42.7045 4.02368 42.9154 3.88306 43.1029 3.74244C43.2435 3.6487 43.3607 3.53152 43.5013 3.43777C43.6654 3.32059 43.8529 3.27372 44.0169 3.17997C44.1341 3.1331 44.2513 3.06279 44.345 3.01592C44.3919 3.01592 44.4388 2.96905 44.4856 2.94561C44.8137 2.82843 45.1418 2.78156 45.47 2.78156C48.0011 2.78156 51.2353 6.06264 52.5477 11.5467L52.5712 11.5702ZM34.6424 21.6243H34.6658C34.6658 21.6243 34.6893 21.8353 34.6893 21.929C34.7361 22.9133 34.8299 23.9211 34.9939 24.9992C34.9939 25.1398 35.0408 25.2804 35.0642 25.421C35.2283 26.4288 35.4392 27.4834 35.6736 28.5849C35.6736 28.6787 35.697 28.749 35.7205 28.8193C34.244 29.4755 32.9081 30.4129 31.8769 31.5848C29.5802 28.8427 28.1974 25.3741 27.9631 21.6009H34.619L34.6424 21.6243ZM38.5797 30.1786C38.5797 30.1786 38.7203 30.1083 38.7906 30.0848C40.853 29.2646 43.2904 28.7724 45.47 28.7724C46.2199 28.7724 46.9464 28.8193 47.6495 28.8896C47.8605 28.8896 48.0714 28.9599 48.2823 28.9833C48.8448 29.0536 49.3838 29.1239 49.876 29.2411H49.9697C50.954 29.4989 51.7743 29.8036 52.5008 30.1786C52.1024 31.866 51.5868 33.3425 50.9306 34.5612C49.2666 37.2095 47.3449 38.7563 45.47 38.7563C43.1966 38.7563 40.4312 35.2642 38.5563 30.1786H38.5797ZM52.8055 36.0142C53.6258 34.7252 54.3757 33.2253 55.032 31.5144C56.2038 32.1707 57.1881 32.8503 57.9849 33.4831L58.0318 33.53C56.2975 35.3346 54.1414 36.7173 51.7743 37.6079C52.1493 37.1157 52.4774 36.5767 52.8055 36.0142ZM56.3444 19.3041C56.3444 16.8199 56.2741 14.6872 55.8522 12.5545C55.946 12.4842 56.0397 12.4139 56.1335 12.3436C56.3678 12.1795 56.6256 12.0155 56.86 11.828C57.1412 11.6405 57.399 11.4295 57.6803 11.2186C57.8678 11.0546 58.0787 10.9139 58.2662 10.7499C58.5474 10.5155 58.8286 10.2343 59.1099 9.9765C59.2505 9.83588 59.4145 9.69526 59.5552 9.53121C59.602 9.48433 59.6489 9.43746 59.6958 9.36715C62.016 12.5076 63.3753 15.9527 63.6331 19.2807H56.3444V19.3041Z" fill="black"/>
</svg>
