<svg width="55" height="55" viewBox="0 0 55 55" fill="none" xmlns="http://www.w3.org/2000/svg">
<g clip-path="url(#clip0_1_333)">
<path fill-rule="evenodd" clip-rule="evenodd" d="M1.30957 22.8849C1.30957 14.5103 8.52486 7.82617 17.2919 7.82617C26.059 7.82617 33.2743 14.5103 33.2743 22.8849C33.2743 24.1155 33.1176 25.325 32.8128 26.4934C32.6759 27.0183 32.1395 27.3328 31.6146 27.1959C31.0897 27.059 30.7752 26.5225 30.9121 25.9977C31.1747 24.991 31.31 23.9481 31.31 22.8849C31.31 15.7109 25.0937 9.79046 17.2919 9.79046C9.49024 9.79046 3.27386 15.7109 3.27386 22.8849C3.27386 25.1443 3.88505 27.3169 5.037 29.2476C5.09704 29.3482 5.14963 29.4515 5.19468 29.5571L17.2992 49.6859L20.7115 44.1205C20.995 43.6581 21.5997 43.5131 22.0621 43.7966C22.5246 44.0801 22.6696 44.6848 22.3861 45.1472L17.2829 53.4704L3.42719 30.4295L3.39615 30.3482C3.38485 30.3186 3.36988 30.2871 3.35015 30.254C2.01992 28.0245 1.30957 25.505 1.30957 22.8849Z" fill="black"/>
<path fill-rule="evenodd" clip-rule="evenodd" d="M38.4395 10.0868C38.9426 9.88412 39.5148 10.1277 39.7175 10.6308C42.1271 16.613 42.1437 22.7221 39.7969 28.0871C37.4509 33.4502 32.7838 37.9788 25.9904 40.8874C25.4918 41.1009 24.9145 40.8697 24.701 40.3711C24.4875 39.8724 24.7187 39.2951 25.2173 39.0816C31.6265 36.3376 35.882 32.1356 37.9973 27.2999C40.1117 22.466 40.1283 16.908 37.8955 11.3648C37.6928 10.8616 37.9364 10.2895 38.4395 10.0868Z" fill="black"/>
<path fill-rule="evenodd" clip-rule="evenodd" d="M46.6854 0.233075C47.0946 -0.122985 47.715 -0.0799086 48.071 0.32929C54.7672 8.02479 55.8097 19.1656 52.5868 29.3109C49.3603 39.4679 41.8097 48.8103 31.0468 52.9618C30.5407 53.157 29.9722 52.905 29.777 52.3989C29.5818 51.8928 29.8338 51.3243 30.3399 51.1291C40.4617 47.2249 47.6392 38.398 50.7147 28.7162C53.794 19.0229 52.7125 8.65581 46.5892 1.6187C46.2331 1.2095 46.2762 0.589135 46.6854 0.233075Z" fill="black"/>
<path fill-rule="evenodd" clip-rule="evenodd" d="M23.1849 22.6049C23.1849 19.0202 20.4513 16.2912 17.292 16.2912C14.1326 16.2912 11.399 19.0202 11.399 22.6049C11.399 26.1897 14.1326 28.9187 17.292 28.9187C20.4513 28.9187 23.1849 26.1897 23.1849 22.6049ZM17.292 14.3269C21.6314 14.3269 25.1492 18.0331 25.1492 22.6049C25.1492 27.1768 21.6314 30.883 17.292 30.883C12.9525 30.883 9.43469 27.1768 9.43469 22.6049C9.43469 18.0331 12.9525 14.3269 17.292 14.3269Z" fill="black"/>
</g>
<defs>
<clipPath id="clip0_1_333">
<rect width="55" height="55" fill="white"/>
</clipPath>
</defs>
</svg>
