<svg width="61" height="42" viewBox="0 0 61 42" fill="none" xmlns="http://www.w3.org/2000/svg">
<path fill-rule="evenodd" clip-rule="evenodd" d="M9.47906 5.73346C9.47906 2.58023 12.0747 0 15.1662 0H55.3129C58.4043 0 61 2.58023 61 5.73346V36.2665C61 39.4198 58.4043 42 55.3129 42H20.3239C19.7236 42 19.2369 41.5024 19.2369 40.8885C19.2369 40.2746 19.7236 39.777 20.3239 39.777H55.3129C57.2398 39.777 58.826 38.1555 58.826 36.2665V5.73346C58.826 3.84455 57.2398 2.22299 55.3129 2.22299H15.1662C13.2393 2.22299 11.6531 3.84455 11.6531 5.73346V36.1265C11.6531 39.2797 9.05738 41.8599 5.96594 41.8599H5.68712C2.59568 41.8599 0 39.2797 0 36.1265V10.9157C0 10.3018 0.486667 9.8042 1.087 9.8042C1.68734 9.8042 2.174 10.3018 2.174 10.9157V36.1265C2.174 38.0154 3.76024 39.637 5.68712 39.637H5.96594C7.89282 39.637 9.47906 38.0154 9.47906 36.1265V5.73346Z" fill="black"/>
<path fill-rule="evenodd" clip-rule="evenodd" d="M39.0315 21C39.0315 20.3861 39.5182 19.8885 40.1185 19.8885H50.0157C50.6161 19.8885 51.1027 20.3861 51.1027 21V30.9443C51.1027 31.5581 50.6161 32.0558 50.0157 32.0558H40.1185C39.5182 32.0558 39.0315 31.5581 39.0315 30.9443V21ZM41.2055 22.1115V29.8328H48.9287V22.1115H41.2055Z" fill="black"/>
<path fill-rule="evenodd" clip-rule="evenodd" d="M19.237 30.9443C19.237 30.3304 19.7236 29.8328 20.324 29.8328H30.2213C30.8216 29.8328 31.3083 30.3304 31.3083 30.9443C31.3083 31.5581 30.8216 32.0558 30.2213 32.0558H20.324C19.7236 32.0558 19.237 31.5581 19.237 30.9443Z" fill="black"/>
<path fill-rule="evenodd" clip-rule="evenodd" d="M19.237 21C19.237 20.3861 19.7236 19.8885 20.324 19.8885H30.2213C30.8216 19.8885 31.3083 20.3861 31.3083 21C31.3083 21.6139 30.8216 22.1115 30.2213 22.1115H20.324C19.7236 22.1115 19.237 21.6139 19.237 21Z" fill="black"/>
<path fill-rule="evenodd" clip-rule="evenodd" d="M19.237 11.0557C19.237 10.4419 19.7236 9.94425 20.324 9.94425H50.0158C50.6161 9.94425 51.1028 10.4419 51.1028 11.0557C51.1028 11.6696 50.6161 12.1672 50.0158 12.1672H20.324C19.7236 12.1672 19.237 11.6696 19.237 11.0557Z" fill="black"/>
</svg>
