<svg width="47" height="47" viewBox="0 0 47 47" fill="none" xmlns="http://www.w3.org/2000/svg">
<path fill-rule="evenodd" clip-rule="evenodd" d="M19.8751 3.65628C21.0127 0.0867612 25.9873 0.0867597 27.125 3.65628L30.4376 14.0502C30.7275 14.9598 31.5522 15.5608 32.4665 15.5608L43.1864 15.5608C46.9097 15.5608 48.3811 20.369 45.4321 22.5534L36.7595 28.9772C36.0098 29.5324 35.6885 30.5255 35.9792 31.4377L37.6355 36.6347C37.776 37.0754 37.5326 37.5466 37.0918 37.6871C36.6511 37.8276 36.1799 37.5841 36.0394 37.1434L34.3831 31.9464C33.878 30.3615 34.4285 28.6191 35.7624 27.631L44.435 21.2072C46.145 19.9407 45.222 17.236 43.1864 17.236H32.4665C30.8054 17.236 29.3475 16.1464 28.8415 14.5589L25.5289 4.16498C24.887 2.1508 22.1131 2.1508 21.4712 4.16498L18.1585 14.5589C17.6526 16.1464 16.1947 17.236 14.5336 17.236H3.81363C1.77808 17.236 0.855079 19.9407 2.56505 21.2072L11.2377 27.631C12.5716 28.6191 13.1221 30.3615 12.617 31.9464L9.30431 42.3403C8.64298 44.4153 10.9539 46.0067 12.5817 44.8009L21.2544 38.3771C22.5923 37.3861 24.4078 37.3861 25.7457 38.3771L34.4183 44.8009C36.0462 46.0067 38.3571 44.4153 37.6958 42.3403C37.5553 41.8996 37.7987 41.4284 38.2395 41.2879C38.6802 41.1475 39.1514 41.3909 39.2919 41.8316C40.4101 45.3404 36.4524 48.3922 33.4212 46.1471L24.7486 39.7233C24.003 39.171 22.9971 39.171 22.2515 39.7233L13.5788 46.1471C10.5477 48.3922 6.58995 45.3404 7.70821 41.8316L11.0209 31.4377C11.3116 30.5255 10.9902 29.5324 10.2406 28.9772L1.56796 22.5534C-1.38108 20.369 0.090333 15.5608 3.81363 15.5608L14.5336 15.5608C15.4479 15.5608 16.2725 14.9598 16.5624 14.0502L19.8751 3.65628Z" fill="#2F2E2E"/>
</svg>
